<?xml version="1.0" encoding="UTF-8" standalone="no"?>
<!-- Created with Inkscape (http://www.inkscape.org/) -->

<svg
   xmlns:dc="http://purl.org/dc/elements/1.1/"
   xmlns:cc="http://creativecommons.org/ns#"
   xmlns:rdf="http://www.w3.org/1999/02/22-rdf-syntax-ns#"
   xmlns:svg="http://www.w3.org/2000/svg"
   xmlns="http://www.w3.org/2000/svg"
   xmlns:sodipodi="http://sodipodi.sourceforge.net/DTD/sodipodi-0.dtd"
   xmlns:inkscape="http://www.inkscape.org/namespaces/inkscape"
   width="210mm"
   height="297mm"
   viewBox="0 0 210 297"
   version="1.1"
   id="svg8"
   sodipodi:docname="harga-ic.svg"
   inkscape:version="0.92.4 (5da689c313, 2019-01-14)">
  <defs
     id="defs2" />
  <sodipodi:namedview
     id="base"
     pagecolor="#ffffff"
     bordercolor="#666666"
     borderopacity="1.0"
     inkscape:pageopacity="0.0"
     inkscape:pageshadow="2"
     inkscape:zoom="0.24748737"
     inkscape:cx="1095.0194"
     inkscape:cy="218.0595"
     inkscape:document-units="mm"
     inkscape:current-layer="layer1"
     showgrid="false"
     inkscape:window-width="1366"
     inkscape:window-height="745"
     inkscape:window-x="-8"
     inkscape:window-y="-8"
     inkscape:window-maximized="1"
     inkscape:showpageshadow="true"
     borderlayer="false"
     showborder="false" />
  <metadata
     id="metadata5">
    <rdf:RDF>
      <cc:Work
         rdf:about="">
        <dc:format>image/svg+xml</dc:format>
        <dc:type
           rdf:resource="http://purl.org/dc/dcmitype/StillImage" />
        <dc:title></dc:title>
      </cc:Work>
    </rdf:RDF>
  </metadata>
  <g
     inkscape:label="Layer 1"
     inkscape:groupmode="layer"
     id="layer1">
    <path
       style="fill:#006900;fill-opacity:1;stroke-width:0.22124197"
       d="m 82.865824,267.81101 c -2.301521,-0.35818 -5.231812,-1.2971 -7.52373,-2.41074 -1.86903,-0.90815 -2.644523,-1.46665 -4.977945,-3.58508 -10.540599,-9.56948 -49.898238,-48.78235 -55.228235,-55.02511 -3.362268,-3.93805 -5.4126098,-10.53015 -5.102463,-16.40505 0.221888,-4.20305 1.067936,-7.29477 3.223518,-11.7797 l 1.303303,-2.71165 31.27663,-31.20407 c 44.199922,-44.09737 48.598864,-48.401303 53.168242,-52.019793 2.273296,-1.800195 3.972876,-2.671402 7.644186,-3.91838 l 2.98677,-1.014463 23.20832,-0.170054 23.20835,-0.170054 0.82235,-3.1643 c 1.95353,-7.51695 5.526,-14.910209 9.66405,-19.99989 2.05528,-2.527921 6.51782,-6.666182 8.89536,-8.248979 7.46759,-4.971392 15.77823,-6.024773 24.48169,-3.103117 8.083,2.713363 16.01936,10.593563 20.88019,20.732356 6.25624,13.049459 7.66442,28.880394 3.8828,43.651594 -2.47407,9.66392 -7.0566,17.98753 -13.25683,24.07952 -3.14917,3.09421 -10.53554,7.74563 -11.21727,7.0639 -0.16005,-0.16005 -0.28899,-1.85699 -0.36135,-4.75294 l -0.11269,-4.50414 1.52388,-0.87666 c 2.21956,-1.27686 6.88027,-5.97426 8.77687,-8.84598 3.63392,-5.50223 5.95981,-11.67033 7.29564,-19.3474 0.66346,-3.81296 0.71624,-13.991116 0.093,-17.927254 -2.65218,-16.748955 -11.35424,-28.916527 -22.71691,-31.763699 -2.186,-0.54775 -5.93133,-0.544967 -8.05665,0.0064 -4.14199,1.07377 -7.67164,3.251633 -11.21651,6.920802 -4.26745,4.417072 -7.1757,9.586834 -9.55373,16.982812 -1.83722,5.714084 -2.19267,9.660358 -2.49583,27.710069 l -0.14951,8.90451 -0.88145,0.79632 c -1.08984,0.98462 -2.09113,1.41708 -3.281,1.41708 -1.19649,0 -2.13241,-0.46397 -3.24828,-1.61027 l -0.90922,-0.93402 -0.071,-7.0136 c -0.0488,-4.8254 -0.14887,-7.09143 -0.32064,-7.26303 -0.55876,-0.55824 -4.26067,1.95968 -6.05127,4.11585 -2.19232,2.63991 -2.65936,4.15348 -2.65936,8.61842 0,3.76979 0.25003,4.75851 1.78291,7.05037 1.45468,2.17492 3.63023,4.14548 5.71335,5.17501 l 1.66231,0.82159 h 4.11594 4.11593 l 1.75846,-0.86373 c 2.39166,-1.17473 5.09565,-3.87863 6.54807,-6.54789 l 1.02325,-1.88056 0.14257,-9.29217 c 0.22052,-14.380634 0.69038,-22.337308 1.43384,-24.281314 0.32653,-0.853795 1.09483,-0.796302 3.14886,0.235574 5.50577,2.765938 9.29718,6.661915 11.53818,11.85636 1.71135,3.96675 1.60351,1.43834 1.53885,36.0835 l -0.0577,30.97391 -0.90624,2.54427 c -0.49843,1.39935 -1.47814,3.73898 -2.17714,5.19917 -1.20455,2.51629 -1.43143,2.82812 -4.34575,5.97235 -4.16385,4.49234 -18.66318,19.1439 -52.39899,52.9492 -31.132587,31.19668 -28.36813,28.6448 -33.325348,30.76275 -3.289903,1.40562 -6.168757,2.03003 -9.829677,2.13205 -1.703564,0.0475 -3.694742,-0.006 -4.424842,-0.12023 z m 19.748426,-62.43827 c 4.4096,-1.8401 7.60691,-5.07425 9.26818,-9.37495 0.48622,-1.25874 0.60301,-1.97585 0.67987,-4.1747 0.0806,-2.30549 0.0199,-2.93737 -0.4609,-4.80113 -1.05525,-4.09012 -3.17742,-8.41101 -6.98681,-14.22567 -2.15524,-3.28978 -4.11155,-7.29205 -4.56868,-9.34678 -0.756625,-3.4009 0.13493,-5.76708 2.7528,-7.30603 0.96506,-0.56733 1.18239,-0.60296 3.57187,-0.5858 2.15759,0.0162 2.80935,0.10917 4.28833,0.61675 4.94701,1.69747 9.76204,6.89909 11.07756,11.96694 0.68747,2.6484 0.41148,4.58976 -1.13187,7.96179 -0.84088,1.83718 -0.98942,2.35859 -0.89946,3.15674 0.33165,2.94247 3.93176,4.9525 6.51234,3.63599 1.80374,-0.92019 3.78355,-3.91869 4.62337,-7.00221 0.19883,-0.73011 0.41029,-2.57197 0.46989,-4.09299 0.17886,-4.56407 -0.76102,-8.2537 -3.18197,-12.49124 l -1.23239,-2.15712 1.12109,-1.13834 c 0.6166,-0.62606 1.2864,-1.53596 1.48845,-2.02197 0.99313,-2.38885 -0.17971,-5.16998 -2.60804,-6.18435 -1.74167,-0.72754 -3.38362,-0.2136 -5.39497,1.68866 l -1.23272,1.16584 -0.81034,-0.50273 c -1.41013,-0.87483 -5.18005,-2.64385 -6.67325,-3.1314 -2.22077,-0.72507 -5.59239,-1.17122 -7.52223,-0.99535 -4.38123,0.39927 -7.512356,1.84417 -10.513716,4.85177 -3.224032,3.23072 -4.101995,5.374 -4.127249,10.07537 -0.02892,5.3844 1.401562,9.22501 6.345171,17.03564 4.512784,7.12995 5.854684,10.09459 5.858274,12.94266 0.003,1.6777 -0.35192,2.62122 -1.43592,3.82689 -1.67613,1.86426 -3.751186,2.49942 -6.770544,2.07243 -3.376726,-0.47751 -5.961662,-1.86404 -8.935951,-4.79313 -3.179492,-3.13114 -4.419648,-5.38795 -4.975358,-9.054 -0.378112,-2.49437 -0.152967,-3.77441 1.122684,-6.38298 0.77427,-1.58331 1.087165,-2.48938 1.087165,-3.14823 0,-2.76167 -3.291332,-5.16201 -5.898346,-4.30162 -1.338641,0.44178 -3.189459,2.46804 -4.241121,4.64313 -1.258845,2.6036 -1.660931,4.43254 -1.651806,7.51348 0.01247,4.18876 1.134607,8.11234 3.386633,11.84067 0.607011,1.00494 1.103658,1.91705 1.103658,2.02691 0,0.10983 -0.456232,0.64364 -1.013844,1.18613 -1.438577,1.39953 -1.950798,2.46938 -1.962926,4.09987 -0.01229,1.66276 0.696933,2.87439 2.197533,3.7538 2.143336,1.25607 3.975927,0.88514 6.212306,-1.25743 l 1.340096,-1.28388 0.782129,0.53145 c 0.430169,0.29233 1.718747,1.02891 2.863502,1.63686 3.503765,1.86076 5.428528,2.24083 10.931051,2.1586 3.485139,-0.0521 3.862769,-0.0986 5.146459,-0.63434 z"
       id="path826"
       inkscape:connector-curvature="0" />
  </g>
</svg>
