<?xml version="1.0" encoding="UTF-8" standalone="no"?>
<!-- Created with Inkscape (http://www.inkscape.org/) -->

<svg
   xmlns:dc="http://purl.org/dc/elements/1.1/"
   xmlns:cc="http://creativecommons.org/ns#"
   xmlns:rdf="http://www.w3.org/1999/02/22-rdf-syntax-ns#"
   xmlns:svg="http://www.w3.org/2000/svg"
   xmlns="http://www.w3.org/2000/svg"
   xmlns:sodipodi="http://sodipodi.sourceforge.net/DTD/sodipodi-0.dtd"
   xmlns:inkscape="http://www.inkscape.org/namespaces/inkscape"
   width="210mm"
   height="297mm"
   viewBox="0 0 210 297"
   version="1.1"
   id="svg8"
   inkscape:version="0.92.4 (5da689c313, 2019-01-14)"
   sodipodi:docname="logout.svg">
  <defs
     id="defs2" />
  <sodipodi:namedview
     id="base"
     pagecolor="#ffffff"
     bordercolor="#666666"
     borderopacity="1.0"
     inkscape:pageopacity="0.0"
     inkscape:pageshadow="2"
     inkscape:zoom="0.49497475"
     inkscape:cx="528.62637"
     inkscape:cy="604.56629"
     inkscape:document-units="mm"
     inkscape:current-layer="layer1"
     showgrid="false"
     inkscape:window-width="1366"
     inkscape:window-height="745"
     inkscape:window-x="-8"
     inkscape:window-y="-8"
     inkscape:window-maximized="1" />
  <metadata
     id="metadata5">
    <rdf:RDF>
      <cc:Work
         rdf:about="">
        <dc:format>image/svg+xml</dc:format>
        <dc:type
           rdf:resource="http://purl.org/dc/dcmitype/StillImage" />
        <dc:title></dc:title>
      </cc:Work>
    </rdf:RDF>
  </metadata>
  <g
     inkscape:label="Layer 1"
     inkscape:groupmode="layer"
     id="layer1">
    <path
       inkscape:connector-curvature="0"
       id="path832"
       d="M 97.257679,239.13449 C 78.040863,237.88686 58.7977,231.32275 43.286665,220.72421 25.482301,208.55867 11.940973,190.39681 6.3857505,171.23209 3.7088123,161.99702 2.7066271,154.19545 2.9738199,144.67151 3.5046326,125.75115 10.083833,108.24309 22.503903,92.699617 24.794181,89.833376 33.798197,80.620669 35.89665,78.996462 c 2.968272,-2.297456 6.682261,-3.729285 10.74021,-4.140605 6.62113,-0.671108 12.813034,1.538325 17.178415,6.129743 6.124625,6.44172 6.547618,15.532554 1.038208,22.3127 -0.79898,0.98326 -2.0338,2.24745 -2.744054,2.80931 -1.764339,1.39569 -6.526063,6.24766 -8.271126,8.42786 -6.387898,7.98077 -10.349399,17.53032 -11.384064,27.44229 -0.364885,3.49563 -0.175309,10.11203 0.384528,13.42013 2.977588,17.59473 14.858496,32.82113 32.213833,41.28474 11.771004,5.74031 25.07454,7.91202 38.04907,6.21121 41.32306,-5.41699 65.32603,-44.95477 47.9823,-79.03662 -2.76226,-5.42811 -8.02128,-12.38874 -10.78336,-14.27249 -3.50485,-2.39032 -6.17527,-5.9475 -7.30761,-9.734182 -0.64974,-2.172788 -0.78365,-5.657872 -0.30387,-7.908115 2.43094,-11.401458 15.69213,-17.83472 27.41784,-13.300925 2.30816,0.89245 5.50669,2.856376 7.78326,4.778973 1.74546,1.474076 7.20169,7.359219 9.31318,10.045307 8.8706,11.284562 14.8984,24.314002 17.54539,37.925432 1.65349,8.50262 1.85342,19.40483 0.51987,28.34831 -2.20842,14.81073 -8.67408,29.32715 -18.58535,41.72705 -3.30946,4.14041 -10.38268,11.2192 -14.46863,14.47998 -13.72938,10.95671 -29.8389,18.28003 -47.37488,21.53639 -6.27329,1.16493 -10.94528,1.5831 -18.64349,1.66868 -4.07345,0.0453 -8.095861,0.0376 -8.938651,-0.0171 z m 1.66003,-92.58059 c -7.322817,-1.96057 -13.005488,-7.91023 -14.050569,-14.71069 -0.177809,-1.15705 -0.242202,-14.86498 -0.194644,-41.442102 0.06738,-37.647242 0.09527,-39.786245 0.537,-41.117814 2.080403,-6.271681 7.035351,-10.949283 13.580523,-12.82039 2.932181,-0.838235 8.531101,-0.835061 11.475141,0.0067 5.76381,1.647632 10.54874,5.66309 12.75378,10.702806 1.48706,3.398766 1.42892,1.593296 1.42892,44.378154 0,43.726926 0.10259,41.099276 -1.75273,44.915886 -2.38044,4.89695 -7.1426,8.67734 -12.72702,10.10317 -2.8645,0.73136 -8.28922,0.72374 -11.050401,-0.0155 z"
       style="fill:#04de2b;fill-opacity:1;stroke-width:0.25539017" />
  </g>
</svg>
